<?xml version="1.0" encoding="utf-8"?>
<!-- Generator: Adobe Illustrator 15.0.2, SVG Export Plug-In . SVG Version: 6.00 Build 0)  -->
<!DOCTYPE svg PUBLIC "-//W3C//DTD SVG 1.1//EN" "http://www.w3.org/Graphics/SVG/1.1/DTD/svg11.dtd">
<svg version="1.1" id="Ebene_1" xmlns="http://www.w3.org/2000/svg" xmlns:xlink="http://www.w3.org/1999/xlink" x="0px" y="0px"
	 width="130px" height="96px" viewBox="0 0 130 96" enable-background="new 0 0 130 96" xml:space="preserve">
<g>
	<g>
		<g>
			<path d="M91.021,9c-10.707,0-20.403,4.33-27.437,11.332l27.256,27.182l-27.63,27.552c7.062,7.227,16.909,11.717,27.811,11.717
				c21.479,0,38.895-17.412,38.895-38.892C129.916,26.412,112.502,9,91.021,9z"/>
		</g>
	</g>
	<g>
		<g>
			<path d="M15.012,59.271V36.969h39.259v-23.91c-4.935-2.345-10.455-3.662-16.283-3.662C17.009,9.397,0,26.405,0,47.384
				c0,20.981,17.009,37.989,37.988,37.989c5.828,0,11.348-1.314,16.283-3.66V59.271H15.012z"/>
		</g>
	</g>
</g>
</svg>
